<svg xmlns="http://www.w3.org/2000/svg" viewBox="0 0 256 320" width="256" height="320">
  <path fill="#FF8194"
    d="M128 12 C78 12 38 52 38 102 C38 170 93 220 121 248 C125 252 131 252 135 248 C163 220 218 170 218 102 C218 52 178 12 128 12Z" />
  <path fill="#FFFFFF"
    d="M127 70 L80 105 C77 108 78 114 82 114 L88 114 L88 150 C88 154 91 157 95 157 L161 157 C165 157 168 154 168 150 L168 114 L175 114 C180 114 181 108 178 106 L160 94 L160 74 C160 71 158 69 155 69 L145 69 C142 69 140 71 140 74 L140 79 L133 73 C130 70 126 70 123 73Z" />
  <rect x="110" y="108" width="14" height="14" rx="2" fill="#FF8194" />
  <rect x="132" y="108" width="14" height="14" rx="2" fill="#FF8194" />
  <rect x="110" y="130" width="14" height="14" rx="2" fill="#FF8194" />
  <rect x="132" y="130" width="14" height="14" rx="2" fill="#FF8194" />
</svg>
